<svg width="20" height="16" viewBox="0 0 20 16" fill="none" xmlns="http://www.w3.org/2000/svg">
<mask id="mask0_1_20" style="mask-type:alpha" maskUnits="userSpaceOnUse" x="0" y="0" width="20" height="16">
<g clip-path="url(#clip0_1_20)">
<g clip-path="url(#clip1_1_20)">
<path d="M15.9595 0.587329C16.3563 0.434038 16.9241 0.231973 17.2251 0.141392C17.6287 0.0159729 17.875 -0.0188659 18.1486 0.00900514C18.3675 0.0229406 18.6001 0.0926182 18.6959 0.169263C18.7917 0.238941 18.9079 0.420103 18.9627 0.573393C19.0379 0.796361 19.0379 0.998426 18.9695 1.68127C18.9285 2.14114 18.7985 3.17237 18.689 3.98062C18.5796 4.78888 18.3333 6.41237 18.1486 7.60386C17.9571 8.79534 17.6492 10.6557 17.4577 11.7497C17.273 12.8436 17.0677 13.9724 17.013 14.2581C16.9514 14.5437 16.8214 14.9688 16.7257 15.1917C16.6231 15.4147 16.4384 15.6934 16.3221 15.7979C16.1237 15.9791 16.0484 16 15.638 16C15.2959 16 15.0838 15.9582 14.8307 15.8397C14.646 15.7492 13.2436 14.8155 11.7181 13.7703C10.1925 12.7252 8.8312 11.7566 8.6807 11.6173C8.53704 11.4779 8.37286 11.2619 8.32497 11.1365C8.27024 11.0111 8.24972 10.8299 8.27024 10.7184C8.29761 10.6139 8.4139 10.391 8.5302 10.2237C8.6465 10.0565 9.61792 9.08102 10.6919 8.05676C11.766 7.0325 12.9837 5.85495 13.3941 5.43689C13.8114 5.01882 14.2082 4.59379 14.2698 4.4823C14.3587 4.34295 14.3655 4.25934 14.3177 4.15482C14.272 4.06192 14.1808 4.01546 14.044 4.01546C13.8867 4.01546 12.9016 4.6565 9.92576 6.67018C7.77085 8.13341 5.88274 9.3876 5.73224 9.45031C5.58174 9.51999 5.28758 9.61057 5.08235 9.65238C4.7745 9.72205 4.5898 9.71509 4.06988 9.63147C3.72783 9.56876 2.94112 9.3667 2.33227 9.17857C1.71658 8.99044 1.03249 8.7605 0.806733 8.67689C0.58098 8.58631 0.314182 8.44695 0.211567 8.35637C0.0747473 8.24489 0.0200195 8.13341 0.0200195 7.96618C0.0200195 7.80592 0.0747473 7.68747 0.238931 7.52721C0.362069 7.40179 0.587821 7.24153 0.738323 7.16489C0.888825 7.08824 2.74957 6.25908 4.87712 5.31843C7.00466 4.37779 9.43321 3.31172 10.2815 2.9494C11.1298 2.58707 12.5869 1.96694 13.5309 1.57675C14.4682 1.17959 15.5627 0.733652 15.9595 0.587329Z" fill="#A5A7A8"/>
</g>
</g>
</mask>
<g mask="url(#mask0_1_20)">
<rect x="0.0200195" width="19" height="16" fill="#49A5F9"/>
</g>
<defs>
<clipPath id="clip0_1_20">
<rect width="19" height="16" fill="white" transform="translate(0.0200195)"/>
</clipPath>
<clipPath id="clip1_1_20">
<rect width="19" height="16" fill="white" transform="translate(0.0200195)"/>
</clipPath>
</defs>
</svg>
