<svg width="19" height="18" viewBox="0 0 19 18" fill="none" xmlns="http://www.w3.org/2000/svg">
<mask id="mask0_1_26" style="mask-type:alpha" maskUnits="userSpaceOnUse" x="0" y="0" width="19" height="18">
<g clip-path="url(#clip0_1_26)">
<g clip-path="url(#clip1_1_26)">
<path d="M0.0200195 18.0001L1.28064 13.5276C0.469987 12.1519 0.0431727 10.5867 0.0431727 8.97874C0.0431727 4.02784 4.07538 0 9.03163 0C13.9879 0 18.02 4.02784 18.02 8.97874C18.02 13.9296 13.9879 17.9575 9.03163 17.9575C7.48729 17.9575 5.97509 17.5626 4.63733 16.8128L0.0200195 18.0001ZM4.87338 15.1793L5.14851 15.3471C6.31488 16.0584 7.65767 16.4344 9.03163 16.4344C13.1471 16.4344 16.4953 13.0898 16.4953 8.97874C16.4953 4.86769 13.1471 1.52309 9.03163 1.52309C4.91613 1.52309 1.56791 4.86769 1.56791 8.97874C1.56791 10.4112 1.97547 11.8022 2.74642 13.0014L2.93171 13.2897L2.20576 15.8653L4.87338 15.1793Z" fill="#A5A7A8"/>
<path d="M6.50533 4.80039L5.92209 4.76863C5.7389 4.75865 5.5592 4.8198 5.42073 4.93995C5.13798 5.18523 4.68586 5.65942 4.547 6.27734C4.33992 7.1987 4.65994 8.32692 5.48822 9.45513C6.31649 10.5833 7.86003 12.3885 10.5895 13.1595C11.469 13.4079 12.1609 13.2404 12.6947 12.8993C13.1175 12.6291 13.409 12.1955 13.514 11.7053L13.6072 11.2708C13.6367 11.1327 13.5665 10.9926 13.4381 10.9335L11.467 10.0259C11.339 9.967 11.1873 10.0042 11.1012 10.1156L10.3274 11.1177C10.2689 11.1934 10.1689 11.2234 10.0785 11.1917C9.5486 11.0057 7.77346 10.263 6.79944 8.38885C6.7572 8.30757 6.7677 8.2089 6.82762 8.13958L7.56717 7.28495C7.64273 7.19768 7.66182 7.07499 7.61641 6.96894L6.76674 4.98322C6.72151 4.87751 6.62014 4.80665 6.50533 4.80039Z" fill="#A5A7A8"/>
</g>
</g>
</mask>
<g mask="url(#mask0_1_26)">
<rect x="0.0200195" width="18" height="18" fill="#35A747"/>
</g>
<defs>
<clipPath id="clip0_1_26">
<rect width="18" height="18" fill="white" transform="translate(0.0200195)"/>
</clipPath>
<clipPath id="clip1_1_26">
<rect width="18" height="18" fill="white" transform="translate(0.0200195)"/>
</clipPath>
</defs>
</svg>
