<svg width="1160" height="39" viewBox="0 0 1160 39" fill="none" xmlns="http://www.w3.org/2000/svg">
<g clip-path="url(#clip0_1_33)">
<g clip-path="url(#clip1_1_33)">
<g clip-path="url(#clip2_1_33)">
<path d="M0 1.02777H54.1265C56.3947 1.02777 58.4223 1.44999 60.2093 2.29443C61.9964 3.13888 63.5085 4.26481 64.7456 5.67221C65.9828 7.04443 66.9279 8.61018 67.5808 10.3694C68.2338 12.1287 68.5603 13.9407 68.5603 15.8056C68.5603 17.6352 68.2338 19.4472 67.5808 21.2417C66.9279 23.0009 65.9828 24.5843 64.7456 25.9917C63.5085 27.3639 61.9964 28.4722 60.2093 29.3167C58.4223 30.1611 56.3947 30.5833 54.1265 30.5833H16.2895V37.9722H0V1.02777ZM16.2895 13.6944V17.9167H50.0026C51.5147 17.9167 52.2708 17.213 52.2708 15.8056C52.2708 14.3981 51.5147 13.6944 50.0026 13.6944H16.2895Z" fill="#0B1014"/>
<path d="M126.753 0.5C129.227 0.5 131.564 1.01019 133.764 2.03055C135.963 3.05093 137.871 4.44074 139.486 6.2C141.135 7.92407 142.424 9.94722 143.352 12.2694C144.314 14.5565 144.795 16.9667 144.795 19.5C144.795 22.0333 144.314 24.4611 143.352 26.7833C142.424 29.0704 141.135 31.0935 139.486 32.8528C137.871 34.5769 135.963 35.9491 133.764 36.9694C131.564 37.9898 129.227 38.5 126.753 38.5H89.1223C86.6479 38.5 84.3111 37.9898 82.1116 36.9694C79.9122 35.9491 77.9877 34.5769 76.3381 32.8528C74.7229 31.0935 73.4342 29.0704 72.472 26.7833C71.5441 24.4611 71.0801 22.0333 71.0801 19.5C71.0801 16.9667 71.5441 14.5565 72.472 12.2694C73.4342 9.94722 74.7229 7.92407 76.3381 6.2C77.9877 4.44074 79.9122 3.05093 82.1116 2.03055C84.3111 1.01019 86.6479 0.5 89.1223 0.5H126.753ZM123.402 14.2222H92.473C91.0296 14.2222 89.8096 14.7324 88.813 15.7528C87.8164 16.7731 87.3181 18.0222 87.3181 19.5C87.3181 20.9778 87.8164 22.2269 88.813 23.2472C89.8096 24.2676 91.0296 24.7778 92.473 24.7778H123.402C124.846 24.7778 126.066 24.2676 127.062 23.2472C128.059 22.2269 128.557 20.9778 128.557 19.5C128.557 18.0222 128.059 16.7731 127.062 15.7528C126.066 14.7324 124.846 14.2222 123.402 14.2222Z" fill="#0B1014"/>
<path d="M147.9 37.9722V1.02777H199.965C202.439 1.02777 204.776 1.52036 206.976 2.50554C209.175 3.45554 211.082 4.77499 212.698 6.46388C214.347 8.11758 215.636 10.0704 216.564 12.3222C217.526 14.5741 218.007 16.9667 218.007 19.5C218.007 22.0333 217.526 24.4259 216.564 26.6778C215.636 28.9296 214.347 30.9 212.698 32.5889C211.082 34.2426 209.175 35.562 206.976 36.5472C204.776 37.4972 202.439 37.9722 199.965 37.9722H147.9ZM164.138 24.7778H196.356C197.972 24.7778 199.278 24.2852 200.274 23.3C201.271 22.3148 201.769 21.0481 201.769 19.5C201.769 17.9519 201.271 16.6852 200.274 15.7C199.278 14.7148 197.972 14.2222 196.356 14.2222H164.138V24.7778Z" fill="#0B1014"/>
<path d="M287.606 37.9722H238.635C236.16 37.9722 233.824 37.4972 231.624 36.5472C229.425 35.562 227.5 34.2426 225.851 32.5889C224.235 30.9 222.947 28.9296 221.984 26.6778C221.057 24.4259 220.593 22.0333 220.593 19.5C220.593 16.9667 221.057 14.5741 221.984 12.3222C222.947 10.0704 224.235 8.11758 225.851 6.46388C227.5 4.77499 229.425 3.45554 231.624 2.50554C233.824 1.52036 236.16 1.02777 238.635 1.02777H287.606V14.75H241.985C240.542 14.75 239.322 15.1722 238.325 16.0167C237.329 16.8611 236.831 18.0222 236.831 19.5C236.831 20.9778 237.329 22.1389 238.325 22.9833C239.322 23.8278 240.542 24.25 241.985 24.25H287.606V37.9722Z" fill="#0B1014"/>
<path d="M365.965 37.9722H347.614L343.438 32.6944H311.684L307.508 37.9722H289.157L318.385 1.02777H336.737L365.965 37.9722ZM335.087 22.1389L327.561 12.6389L320.035 22.1389H335.087Z" fill="#0B1014"/>
<path d="M376.208 22.1389C374.455 22.1389 372.874 21.8926 371.465 21.4C370.091 20.8722 368.922 20.1685 367.96 19.2889C366.998 18.3741 366.259 17.2833 365.743 16.0167C365.228 14.75 364.97 13.3602 364.97 11.8472C364.97 10.3343 365.228 8.92684 365.743 7.62499C366.259 6.28795 366.998 5.14443 367.96 4.19443C368.922 3.20925 370.091 2.43518 371.465 1.87221C372.874 1.30925 374.455 1.02777 376.208 1.02777H431.984V13.6944H382.961C382.342 13.6944 381.896 13.888 381.621 14.275C381.38 14.6269 381.26 14.9611 381.26 15.2778C381.26 15.5944 381.38 15.9463 381.621 16.3333C381.896 16.6852 382.342 16.8611 382.961 16.8611H422.808C424.561 16.8611 426.125 17.125 427.499 17.6528C428.908 18.1454 430.094 18.8491 431.056 19.7639C432.018 20.6435 432.757 21.7167 433.273 22.9833C433.788 24.25 434.046 25.6398 434.046 27.1528C434.046 28.6657 433.788 30.0907 433.273 31.4278C432.757 32.7296 432.018 33.8731 431.056 34.8583C430.094 35.8083 428.908 36.5648 427.499 37.1278C426.125 37.6907 424.561 37.9722 422.808 37.9722H367.032V25.3056H416.055C416.674 25.3056 417.104 25.1296 417.344 24.7778C417.619 24.3907 417.757 24.0389 417.757 23.7222C417.757 23.4056 417.619 23.0713 417.344 22.7194C417.104 22.3324 416.674 22.1389 416.055 22.1389H376.208Z" fill="#0B1014"/>
<path d="M461.682 13.6944H435.599V1.02777H504.159V13.6944H477.972V37.9722H461.682V13.6944Z" fill="#0B1014"/>
<path d="M508.342 1.02777H524.632V21.2944L553.293 1.02777H576.903L550.767 19.5L576.903 37.9722H553.293L538.962 27.8389L524.632 37.9722H508.342V1.02777Z" fill="#0B1014"/>
<path d="M647.983 19.5C647.983 22.0333 647.502 24.4611 646.539 26.7833C645.611 29.0704 644.323 31.0935 642.673 32.8528C641.058 34.5769 639.151 35.9491 636.951 36.9694C634.752 37.9898 632.415 38.5 629.941 38.5H597.465C594.99 38.5 592.653 37.9898 590.454 36.9694C588.255 35.9491 586.33 34.5769 584.68 32.8528C583.065 31.0935 581.776 29.0704 580.814 26.7833C579.886 24.4611 579.422 22.0333 579.422 19.5V1.02777H595.712V19.5C595.712 20.9778 596.21 22.2269 597.207 23.2472C598.203 24.2676 599.423 24.7778 600.867 24.7778H626.538C627.982 24.7778 629.202 24.2676 630.198 23.2472C631.195 22.2269 631.693 20.9778 631.693 19.5V1.02777H647.983V19.5Z" fill="#0B1014"/>
<path d="M652.115 1.02777H668.404V25.3056H713.974V37.9722H652.115V1.02777Z" fill="#0B1014"/>
<path d="M728.741 13.6944H702.657V1.02777H771.217V13.6944H745.03V37.9722H728.741V13.6944Z" fill="#0B1014"/>
<path d="M843.909 19.5C843.909 22.0333 843.428 24.4611 842.466 26.7833C841.538 29.0704 840.25 31.0935 838.6 32.8528C836.985 34.5769 835.077 35.9491 832.878 36.9694C830.679 37.9898 828.342 38.5 825.867 38.5H793.391C790.917 38.5 788.58 37.9898 786.381 36.9694C784.181 35.9491 782.257 34.5769 780.607 32.8528C778.992 31.0935 777.703 29.0704 776.741 26.7833C775.813 24.4611 775.349 22.0333 775.349 19.5V1.02777H791.639V19.5C791.639 20.9778 792.137 22.2269 793.134 23.2472C794.13 24.2676 795.35 24.7778 796.794 24.7778H822.465C823.908 24.7778 825.128 24.2676 826.125 23.2472C827.122 22.2269 827.62 20.9778 827.62 19.5V1.02777H843.909V19.5Z" fill="#0B1014"/>
<path d="M848.041 1.02777H902.168C904.436 1.02777 906.464 1.44999 908.251 2.29443C910.038 3.13888 911.55 4.26481 912.787 5.67221C914.024 7.04443 914.969 8.61018 915.622 10.3694C916.275 12.1287 916.602 13.9407 916.602 15.8056C916.602 17.3889 916.344 18.9546 915.828 20.5028C915.347 22.0509 914.626 23.4759 913.663 24.7778C912.736 26.0796 911.584 27.2056 910.21 28.1556C908.869 29.1056 907.34 29.7917 905.622 30.2139L916.602 37.9722H895.57L885.105 30.5833H864.331V37.9722H848.041V1.02777ZM864.331 13.6944V17.9167H898.044C899.556 17.9167 900.312 17.213 900.312 15.8056C900.312 14.3981 899.556 13.6944 898.044 13.6944H864.331Z" fill="#0B1014"/>
<path d="M994.974 37.9722H976.623L972.448 32.6944H940.693L936.518 37.9722H918.166L947.395 1.02777H965.746L994.974 37.9722ZM964.097 22.1389L956.57 12.6389L949.044 22.1389H964.097Z" fill="#0B1014"/>
<path d="M996.599 32.1667C996.599 31.287 996.753 30.4778 997.063 29.7389C997.406 28.9648 997.853 28.2963 998.403 27.7333C998.987 27.1352 999.64 26.6778 1000.36 26.3611C1001.12 26.0093 1001.93 25.8333 1002.78 25.8333H1008.97C1009.83 25.8333 1010.62 26.0093 1011.34 26.3611C1012.1 26.6778 1012.75 27.1352 1013.3 27.7333C1013.88 28.2963 1014.33 28.9648 1014.64 29.7389C1014.98 30.4778 1015.16 31.287 1015.16 32.1667C1015.16 33.0463 1014.98 33.8731 1014.64 34.6472C1014.33 35.3861 1013.88 36.0546 1013.3 36.6528C1012.75 37.2157 1012.1 37.6556 1011.34 37.9722C1010.62 38.3241 1009.83 38.5 1008.97 38.5H1002.78C1001.93 38.5 1001.12 38.3241 1000.36 37.9722C999.64 37.6556 998.987 37.2157 998.403 36.6528C997.853 36.0546 997.406 35.3861 997.063 34.6472C996.753 33.8731 996.599 33.0463 996.599 32.1667Z" fill="#0B1014"/>
<path d="M1019.25 1.02777H1073.38C1075.65 1.02777 1077.67 1.44999 1079.46 2.29443C1081.25 3.13888 1082.76 4.26481 1084 5.67221C1085.23 7.04443 1086.18 8.61018 1086.83 10.3694C1087.48 12.1287 1087.81 13.9407 1087.81 15.8056C1087.81 17.3889 1087.55 18.9546 1087.04 20.5028C1086.56 22.0509 1085.84 23.4759 1084.87 24.7778C1083.94 26.0796 1082.79 27.2056 1081.42 28.1556C1080.08 29.1056 1078.55 29.7917 1076.83 30.2139L1087.81 37.9722H1066.78L1056.31 30.5833H1035.54V37.9722H1019.25V1.02777ZM1035.54 13.6944V17.9167H1069.25C1070.77 17.9167 1071.52 17.213 1071.52 15.8056C1071.52 14.3981 1070.77 13.6944 1069.25 13.6944H1035.54Z" fill="#0B1014"/>
<path d="M1160 19.5C1160 22.0333 1159.52 24.4611 1158.56 26.7833C1157.63 29.0704 1156.34 31.0935 1154.69 32.8528C1153.08 34.5769 1151.17 35.9491 1148.97 36.9694C1146.77 37.9898 1144.43 38.5 1141.96 38.5H1109.48C1107.01 38.5 1104.67 37.9898 1102.47 36.9694C1100.27 35.9491 1098.35 34.5769 1096.7 32.8528C1095.08 31.0935 1093.79 29.0704 1092.83 26.7833C1091.9 24.4611 1091.44 22.0333 1091.44 19.5V1.02777H1107.73V19.5C1107.73 20.9778 1108.23 22.2269 1109.22 23.2472C1110.22 24.2676 1111.44 24.7778 1112.88 24.7778H1138.56C1140 24.7778 1141.22 24.2676 1142.22 23.2472C1143.21 22.2269 1143.71 20.9778 1143.71 19.5V1.02777H1160V19.5Z" fill="#0B1014"/>
</g>
</g>
</g>
<defs>
<clipPath id="clip0_1_33">
<rect width="1160" height="38" fill="white" transform="translate(0 0.5)"/>
</clipPath>
<clipPath id="clip1_1_33">
<rect width="1160" height="38" fill="white" transform="translate(0 0.5)"/>
</clipPath>
<clipPath id="clip2_1_33">
<rect width="1160" height="38" fill="white" transform="translate(0 0.5)"/>
</clipPath>
</defs>
</svg>
